<?xml version="1.0" encoding="UTF-8"?>
<svg width="12px" height="7px" viewBox="0 0 12 7" version="1.1" xmlns="http://www.w3.org/2000/svg" xmlns:xlink="http://www.w3.org/1999/xlink">
    <!-- Generator: Sketch 42 (36781) - http://www.bohemiancoding.com/sketch -->
    <title>Fill 7</title>
    <desc>Created with Sketch.</desc>
    <defs></defs>
    <g id="Symbols" stroke="none" stroke-width="1" fill="none" fill-rule="evenodd">
        <g id="Reader-Stories" transform="translate(-179.000000, -991.000000)" fill="#B1B6B7">
            <g id="Stories">
                <g id="Group-3">
                    <path d="M179.121,996.726272 L184.724,991.119068 C184.796,991.048027 184.905,991 185,991 C185.096,991 185.205,991.048027 185.277,991.119068 L190.88,996.726272 C190.952,996.797313 191,996.907376 191,997.00243 C191,997.098485 190.952,997.207547 190.88,997.279588 L190.279,997.880932 C190.207,997.952973 190.11,998 190.002,998 C189.906,998 189.798,997.952973 189.725,997.880932 L185,993.15323 L180.275,997.880932 C180.203,997.952973 180.095,998 179.998,998 C179.903,998 179.794,997.952973 179.722,997.880932 L179.121,997.279588 C179.049,997.207547 179,997.098485 179,997.00243 C179,996.907376 179.049,996.797313 179.121,996.726272" id="Fill-7" transform="translate(185.000000, 994.500000) scale(1, -1) translate(-185.000000, -994.500000) "></path>
                </g>
            </g>
        </g>
    </g>
</svg>