<?xml version="1.0" encoding="UTF-8"?>
<svg width="130px" height="54px" viewBox="0 0 130 54" version="1.1" xmlns="http://www.w3.org/2000/svg" xmlns:xlink="http://www.w3.org/1999/xlink">
    <!-- Generator: Sketch 42 (36781) - http://www.bohemiancoding.com/sketch -->
    <title>Group 26</title>
    <desc>Created with Sketch.</desc>
    <defs>
        <polygon id="path-1" points="0.0195 29.8922 0.0195 0.0533 46.2384 0.0533 92.4573 0.0533 92.4573 29.8922 0.0195 29.8922"></polygon>
    </defs>
    <g id="Symbols" stroke="none" stroke-width="1" fill="none" fill-rule="evenodd">
        <g id="Reader-Stories" transform="translate(-36.000000, -38.000000)">
            <g id="Stories">
                <g id="Group-3">
                    <g id="Group-26" transform="translate(36.000000, 38.000000)">
                        <g id="Bambu-Logo-Primary">
                            <path d="M25.0367,17.372225 L25.0367,28.8691 C25.0367,29.434275 25.494625,29.8922 26.0598,29.8922 L28.811575,29.8922 C29.37675,29.8922 29.834675,29.434275 29.834675,28.8691 L29.834675,17.372225 L25.0367,17.372225" id="Fill-1" fill="#209D9A"></path>
                            <path d="M29.834675,12.57425 L29.834675,8.74965 C29.834675,6.650475 31.559125,4.926025 33.734025,4.926025 C35.8332,4.926025 37.55765,6.650475 37.55765,8.74965 L37.55765,12.57425 L42.355625,12.57425 L42.355625,8.74965 C42.355625,4.0261 38.4566,0.12805 33.734025,0.12805 C28.935725,0.12805 25.0367,4.0261 25.0367,8.74965 L25.0367,12.57425 L29.834675,12.57425" id="Fill-2" fill="#209D9A"></path>
                            <path d="M37.55765,17.409275 L37.55765,28.8691 C37.55765,29.434275 38.015575,29.8922 38.58075,29.8922 L41.332525,29.8922 C41.8977,29.8922 42.355625,29.434275 42.355625,28.8691 L42.355625,17.372225 L37.55765,17.372225 L37.55765,17.409275" id="Fill-3" fill="#209D9A"></path>
                            <path d="M50.0773,17.372225 L50.0773,28.8691 C50.0773,29.432 50.537825,29.8922 51.1004,29.8922 L53.67635,29.8922 C54.351375,29.8922 54.8756,29.292575 54.8756,28.69295 L54.8756,17.372225 L50.0773,17.372225" id="Fill-4" fill="#209D9A"></path>
                            <path d="M79.916525,8.675225 C79.916525,3.951675 76.017175,0.0533 71.2192,0.0533 C68.820375,0.0533 66.57105,1.1024 64.99675,2.752425 C63.422775,1.1024 61.17345,0.0533 58.774625,0.0533 C53.97665,0.0533 50.0773,3.951675 50.0773,8.675225 L50.0773,12.57425 L54.8756,12.57425 L54.8756,8.675225 C54.8756,6.57605 56.60005,4.8516 58.774625,4.8516 C60.874125,4.8516 62.59825,6.57605 62.59825,8.675225 L62.59825,12.57425 L67.39655,12.57425 L67.39655,8.675225 C67.39655,6.57605 69.120675,4.8516 71.2192,4.8516 C73.393775,4.8516 75.118225,6.57605 75.118225,8.675225 L75.118225,12.57425 L79.916525,12.57425 L79.916525,8.675225" id="Fill-5" fill="#209D9A"></path>
                            <path d="M75.118225,17.372225 L75.118225,28.69295 C75.118225,29.292575 75.643425,29.8922 76.317475,29.8922 L78.71695,29.8922 C79.391325,29.8922 79.916525,29.292575 79.916525,28.69295 L79.916525,17.372225 L75.118225,17.372225" id="Fill-6" fill="#209D9A"></path>
                            <path d="M62.59825,28.69295 C62.59825,29.292575 63.122475,29.8922 63.7975,29.8922 L66.196325,29.8922 C66.87135,29.8922 67.39655,29.292575 67.39655,28.69295 L67.39655,17.372225 L62.59825,17.372225 L62.59825,28.69295" id="Fill-7" fill="#209D9A"></path>
                            <path d="M127.208575,17.372225 L125.202025,17.372225 L125.202025,21.19585 C125.202025,23.369775 123.477575,25.094225 121.3784,25.094225 C119.2035,25.094225 117.47905,23.369775 117.47905,21.19585 L117.47905,17.372225 L112.681075,17.372225 L112.681075,21.19585 C112.681075,25.99415 116.5801,29.8922 121.3784,29.8922 C126.100975,29.8922 130,25.99415 130,21.19585 L130,17.372225 L127.208575,17.372225" id="Fill-8" fill="#209D9A"></path>
                            <path d="M130,1.0764 C130,0.51155 129.542075,0.0533 128.9769,0.0533 L126.2248,0.0533 C125.65995,0.0533 125.202025,0.51155 125.202025,1.0764 L125.202025,12.57425 L130,12.57425 L130,1.0764" id="Fill-9" fill="#209D9A"></path>
                            <polygon id="Fill-10" fill="#209D9A" points="29.834675 17.372225 37.55765 17.372225 37.55765 12.57425 29.834675 12.57425"></polygon>
                            <polygon id="Fill-11" fill="#1E5961" points="25.0367 17.372225 29.834675 17.372225 29.834675 12.57425 25.0367 12.57425"></polygon>
                            <polygon id="Fill-12" fill="#1E5961" points="37.55765 17.372225 42.355625 17.372225 42.355625 12.57425 37.55765 12.57425"></polygon>
                            <polygon id="Fill-13" fill="#1E5961" points="62.59825 17.372225 67.39655 17.372225 67.39655 12.57425 62.59825 12.57425"></polygon>
                            <polygon id="Fill-14" fill="#1E5961" points="50.0773 17.372225 54.8756 17.372225 54.8756 12.57425 50.0773 12.57425"></polygon>
                            <polygon id="Fill-15" fill="#1E5961" points="75.118225 17.372225 79.916525 17.372225 79.916525 12.57425 75.118225 12.57425"></polygon>
                            <polygon id="Fill-16" fill="#1E5961" points="112.681075 17.372225 117.47905 17.372225 117.47905 12.57425 112.681075 12.57425"></polygon>
                            <polyline id="Fill-17" fill="#209D9A" points="92.43715 12.536225 92.43715 4.851275 87.639175 4.851275 87.639175 12.57425 92.43715 12.57425 92.43715 12.536225"></polyline>
                            <polygon id="Fill-18" fill="#209D9A" points="87.639175 25.0939 92.43715 25.0939 92.43715 17.372225 87.639175 17.372225"></polygon>
                            <path d="M105.289925,8.750625 C105.289925,3.95265 101.391875,0.0533 96.668325,0.0533 L92.4573,0.0533 L92.4573,1.215825 L92.43715,4.851275 L96.668325,4.851275 C98.7675,4.851275 100.491625,6.575725 100.491625,8.750625 C100.491625,10.8498 98.7675,12.57425 96.668325,12.57425 L92.43715,12.57425 L92.43715,17.372225 L96.668325,17.372225 C98.767825,17.372225 100.49195,19.096675 100.49195,21.194875 C100.49195,23.369775 98.767825,25.094225 96.668325,25.094225 L92.43715,25.094225 L92.43715,29.8922 L96.668325,29.8922 C101.391875,29.8922 105.29025,25.993175 105.29025,21.194875 C105.29025,18.796375 104.24115,16.54705 102.591125,14.97275 C104.240825,13.39845 105.289925,11.149125 105.289925,8.750625" id="Fill-19" fill="#209D9A"></path>
                            <path d="M92.4573,1.215825 L92.4573,0.0533 L88.91805,0.0533 C88.21475,0.0533 87.639175,0.628875 87.639175,1.332175 L87.639175,4.851275 L92.43715,4.851275 L92.4573,1.215825" id="Fill-20" fill="#1E5961"></path>
                            <polyline id="Fill-21" fill="#1E5961" points="92.43715 17.334525 92.43715 12.57425 87.639175 12.57425 87.639175 17.372225 92.43715 17.372225 92.43715 17.334525"></polyline>
                            <polygon id="Fill-22" fill="#1E5961" points="125.202025 17.372225 130 17.372225 130 12.57425 125.202025 12.57425"></polygon>
                            <path d="M117.47905,1.0764 C117.47905,0.51155 117.021125,0.0533 116.45595,0.0533 L113.70385,0.0533 C113.139,0.0533 112.681075,0.51155 112.681075,1.0764 L112.681075,12.57425 L117.47905,12.57425 L117.47905,1.0764" id="Fill-23" fill="#209D9A"></path>
                            <g id="Group-32">
                                <mask id="mask-2" fill="white">
                                    <use xlink:href="#path-1"></use>
                                </mask>
                                <g id="Clip-25"></g>
                                <path d="M92.4573,28.729675 L92.4573,29.8922 L88.91805,29.8922 C88.21475,29.8922 87.639175,29.316625 87.639175,28.613325 L87.639175,25.094225 L92.43715,25.094225 L92.4573,28.729675" id="Fill-24" fill="#1E5961" mask="url(#mask-2)"></path>
                                <polyline id="Fill-26" fill="#209D9A" mask="url(#mask-2)" points="4.7983 12.536225 4.7983 4.851275 0 4.851275 0 12.57425 4.7983 12.57425 4.7983 12.536225"></polyline>
                                <polygon id="Fill-27" fill="#209D9A" mask="url(#mask-2)" points="0.0195 25.0939 4.7983 25.0939 4.7983 17.372225 0.0195 17.372225"></polygon>
                                <path d="M17.65075,8.750625 C17.65075,3.95265 13.7527,0.0533 9.02915,0.0533 L4.818125,0.0533 L4.818125,1.215825 L4.7983,4.851275 L9.02915,4.851275 C11.128325,4.851275 12.852775,6.575725 12.852775,8.750625 C12.852775,10.8498 11.128325,12.57425 9.02915,12.57425 L4.7983,12.57425 L4.7983,17.372225 L9.029475,17.372225 C11.12865,17.372225 12.852775,19.096675 12.852775,21.194875 C12.852775,23.369775 11.12865,25.094225 9.029475,25.094225 L4.7983,25.094225 L4.7983,29.8922 L9.029475,29.8922 C13.7527,29.8922 17.651075,25.993175 17.651075,21.194875 C17.651075,18.796375 16.601975,16.54705 14.952275,14.97275 C16.60165,13.39845 17.65075,11.149125 17.65075,8.750625" id="Fill-28" fill="#209D9A" mask="url(#mask-2)"></path>
                                <path d="M4.818125,1.215825 L4.818125,0.0533 L1.278875,0.0533 C0.575575,0.0533 0,0.628875 0,1.332175 L0,4.851275 L4.7983,4.851275 L4.818125,1.215825" id="Fill-29" fill="#1E5961" mask="url(#mask-2)"></path>
                                <polyline id="Fill-30" fill="#1E5961" mask="url(#mask-2)" points="4.7983 17.334525 4.7983 12.57425 0 12.57425 0 17.372225 4.7983 17.372225 4.7983 17.334525"></polyline>
                                <path d="M4.818125,28.729675 L4.818125,29.8922 L1.278875,29.8922 C0.575575,29.8922 0,29.316625 0,28.613325 L0,25.094225 L4.7983,25.094225 L4.818125,28.729675" id="Fill-31" fill="#1E5961" mask="url(#mask-2)"></path>
                            </g>
                            <path d="M26.479375,50.935625 C27.656525,50.935625 28.353,49.986625 28.353,48.701575 C28.353,47.4162 27.656525,46.4555 26.479375,46.4555 C25.77055,46.4555 25.06205,46.88775 24.749725,47.392475 L24.749725,50.022375 C25.06205,50.5271 25.77055,50.935625 26.479375,50.935625 Z M23.848825,51.596025 L23.848825,43.584775 L24.749725,43.584775 L24.749725,46.671625 C25.21805,46.03495 25.91485,45.650475 26.707525,45.650475 C28.22105,45.650475 29.289975,46.852 29.289975,48.701575 C29.289975,50.587225 28.22105,51.740325 26.707525,51.740325 C25.8908,51.740325 25.181975,51.3201 24.749725,50.7312 L24.749725,51.596025 L23.848825,51.596025 L23.848825,51.596025 Z" id="Fill-33" fill="#ABB0AD"></path>
                            <path d="M30.35825,53.049425 C30.4902,53.109225 30.706325,53.145625 30.850625,53.145625 C31.247125,53.145625 31.51135,53.013675 31.71545,52.533 L32.099925,51.65615 L29.673475,45.794775 L30.646525,45.794775 L32.580275,50.55115 L34.502,45.794775 L35.48675,45.794775 L32.580275,52.773175 C32.231875,53.61395 31.6433,53.9383 30.874675,53.95 C30.6826,53.95 30.3823,53.91425 30.21395,53.86615 L30.35825,53.049425" id="Fill-34" fill="#ABB0AD"></path>
                            <path d="M39.07735,50.4673 L39.665925,49.710375 C40.194375,50.29895 41.0592,50.85145 42.18825,50.85145 C43.6176,50.85145 44.0739,50.082825 44.0739,49.4702 C44.0739,47.4045 39.32955,48.545575 39.32955,45.686875 C39.32955,44.365425 40.5067,43.46485 42.080025,43.46485 C43.305275,43.46485 44.25395,43.87305 44.9267,44.58155 L44.3261,45.314425 C43.7255,44.6537 42.884725,44.3534 42.007875,44.3534 C41.047175,44.3534 40.3624,44.87015 40.3624,45.62675 C40.3624,47.428225 45.10675,46.395375 45.10675,49.386025 C45.10675,50.55115 44.314075,51.740325 42.152175,51.740325 C40.7589,51.740325 39.73775,51.211875 39.07735,50.4673" id="Fill-35" fill="#ABB0AD"></path>
                            <path d="M50.97365,48.68955 C50.97365,47.4045 50.27685,46.4555 49.111725,46.4555 C48.403225,46.4555 47.6944,46.875725 47.382075,47.38045 L47.382075,49.99865 C47.6944,50.50305 48.403225,50.935625 49.111725,50.935625 C50.27685,50.935625 50.97365,49.9746 50.97365,48.68955 Z M47.382075,50.719175 L47.382075,53.806025 L46.4815,53.806025 L46.4815,45.794775 L47.382075,45.794775 L47.382075,46.6596 C47.802625,46.071025 48.52315,45.650475 49.339875,45.650475 C50.865425,45.650475 51.922325,46.803575 51.922325,48.68955 C51.922325,50.563175 50.865425,51.740325 49.339875,51.740325 C48.5472,51.740325 47.850725,51.367875 47.382075,50.719175 L47.382075,50.719175 Z" id="Fill-36" fill="#ABB0AD"></path>
                            <path d="M53.287325,51.596025 L53.287325,45.794775 L54.188225,45.794775 L54.188225,46.731425 C54.65655,46.119125 55.3293,45.67485 56.121975,45.67485 L56.121975,46.599475 C56.014075,46.575425 55.90585,46.5634 55.76155,46.5634 C55.20905,46.5634 54.45245,47.020025 54.188225,47.48835 L54.188225,51.596025 L53.287325,51.596025" id="Fill-37" fill="#ABB0AD"></path>
                            <path d="M61.490325,48.68955 C61.490325,47.5124 60.80555,46.4555 59.5686,46.4555 C58.331325,46.4555 57.63485,47.5124 57.63485,48.68955 C57.63485,49.8784 58.331325,50.935625 59.5686,50.935625 C60.80555,50.935625 61.490325,49.8784 61.490325,48.68955 Z M56.697875,48.68955 C56.697875,47.008 57.802875,45.650475 59.5686,45.650475 C61.334325,45.650475 62.439325,47.008 62.439325,48.68955 C62.439325,50.3711 61.334325,51.740325 59.5686,51.740325 C57.802875,51.740325 56.697875,50.3711 56.697875,48.68955 L56.697875,48.68955 Z" id="Fill-38" fill="#ABB0AD"></path>
                            <path d="M67.69685,51.596025 L67.69685,50.779625 C67.252575,51.2837 66.495975,51.740325 65.630825,51.740325 C64.417925,51.740325 63.78125,51.15175 63.78125,49.890425 L63.78125,45.794775 L64.68215,45.794775 L64.68215,49.6145 C64.68215,50.635 65.198575,50.935625 65.97955,50.935625 C66.687725,50.935625 67.3608,50.5271 67.69685,50.058775 L67.69685,45.794775 L68.59775,45.794775 L68.59775,51.596025 L67.69685,51.596025" id="Fill-39" fill="#ABB0AD"></path>
                            <path d="M70.538,50.383125 L70.538,46.58745 L69.576975,46.58745 L69.576975,45.794775 L70.538,45.794775 L70.538,44.209425 L71.4389,44.209425 L71.4389,45.794775 L72.61605,45.794775 L72.61605,46.58745 L71.4389,46.58745 L71.4389,50.190725 C71.4389,50.6233 71.630975,50.935625 72.027475,50.935625 C72.27935,50.935625 72.51985,50.8274 72.6401,50.69545 L72.904,51.367875 C72.67585,51.584 72.3515,51.740325 71.82305,51.740325 C70.97025,51.740325 70.538,51.24795 70.538,50.383125" id="Fill-40" fill="#ABB0AD"></path>
                            <path d="M76.543025,50.4673 L77.131275,49.710375 C77.66005,50.29895 78.52455,50.85145 79.653925,50.85145 C81.08295,50.85145 81.539575,50.082825 81.539575,49.4702 C81.539575,47.4045 76.795225,48.545575 76.795225,45.686875 C76.795225,44.365425 77.97205,43.46485 79.5457,43.46485 C80.770625,43.46485 81.719625,43.87305 82.392375,44.58155 L81.791775,45.314425 C81.191175,44.6537 80.3504,44.3534 79.47355,44.3534 C78.512525,44.3534 77.828075,44.87015 77.828075,45.62675 C77.828075,47.428225 82.572425,46.395375 82.572425,49.386025 C82.572425,50.55115 81.77975,51.740325 79.61785,51.740325 C78.22425,51.740325 77.203425,51.211875 76.543025,50.4673" id="Fill-41" fill="#ABB0AD"></path>
                            <path d="M88.404225,48.68955 C88.404225,47.5124 87.71945,46.4555 86.4825,46.4555 C85.245225,46.4555 84.548425,47.5124 84.548425,48.68955 C84.548425,49.8784 85.245225,50.935625 86.4825,50.935625 C87.71945,50.935625 88.404225,49.8784 88.404225,48.68955 Z M83.6121,48.68955 C83.6121,47.008 84.716775,45.650475 86.4825,45.650475 C88.2479,45.650475 89.353225,47.008 89.353225,48.68955 C89.353225,50.3711 88.2479,51.740325 86.4825,51.740325 C84.716775,51.740325 83.6121,50.3711 83.6121,48.68955 L83.6121,48.68955 Z" id="Fill-42" fill="#ABB0AD"></path>
                            <path d="M90.384125,48.68955 C90.384125,46.971925 91.548925,45.650475 93.2789,45.650475 C94.3358,45.650475 94.96045,46.08305 95.404725,46.6596 L94.804125,47.2121 C94.41965,46.68365 93.9276,46.4555 93.326675,46.4555 C92.089725,46.4555 91.320775,47.4045 91.320775,48.68955 C91.320775,49.9746 92.089725,50.935625 93.326675,50.935625 C93.9276,50.935625 94.41965,50.69545 94.804125,50.1787 L95.404725,50.7312 C94.96045,51.308075 94.3358,51.740325 93.2789,51.740325 C91.548925,51.740325 90.384125,50.418875 90.384125,48.68955" id="Fill-43" fill="#ABB0AD"></path>
                            <path d="M96.49835,51.596025 L97.39925,51.596025 L97.39925,45.794775 L96.49835,45.794775 L96.49835,51.596025 Z M96.342025,44.365425 C96.342025,44.02905 96.6186,43.7528 96.942625,43.7528 C97.279,43.7528 97.555575,44.02905 97.555575,44.365425 C97.555575,44.7018 97.279,44.966025 96.942625,44.966025 C96.6186,44.966025 96.342025,44.7018 96.342025,44.365425 L96.342025,44.365425 Z" id="Fill-44" fill="#ABB0AD"></path>
                            <path d="M102.673025,50.3711 L102.673025,49.2778 C102.32495,48.79745 101.712325,48.5576 101.07565,48.5576 C100.234875,48.5576 99.645975,49.08605 99.645975,49.830625 C99.645975,50.563175 100.234875,51.091625 101.07565,51.091625 C101.712325,51.091625 102.32495,50.85145 102.673025,50.3711 Z M102.673025,51.596025 L102.673025,50.935625 C102.19235,51.464075 101.53195,51.740325 100.7513,51.740325 C99.76655,51.740325 98.72135,51.0796 98.72135,49.8186 C98.72135,48.5212 99.76655,47.9089 100.7513,47.9089 C101.543975,47.9089 102.2047,48.1611 102.673025,48.701575 L102.673025,47.656375 C102.673025,46.875725 102.048375,46.43145 101.2076,46.43145 C100.511125,46.43145 99.9466,46.68365 99.42985,47.23615 L99.009625,46.6115 C99.634275,45.9628 100.37885,45.650475 101.32785,45.650475 C102.5531,45.650475 103.5736,46.202975 103.5736,47.6086 L103.5736,51.596025 L102.673025,51.596025 L102.673025,51.596025 Z" id="Fill-45" fill="#ABB0AD"></path>
                            <polygon id="Fill-46" fill="#ABB0AD" points="105.25125 51.596025 106.15215 51.596025 106.15215 43.584775 105.25125 43.584775"></polygon>
                        </g>
                    </g>
                </g>
            </g>
        </g>
    </g>
</svg>